<svg width="30" height="18" viewBox="0 0 30 18" fill="none" xmlns="http://www.w3.org/2000/svg">
<path d="M28.2657 4.42489L27.3225 3.11381L14.574 10.2974L12.1095 6.7739L1.33874 12.8923L0 11.0076L12.8702 3.68741L15.3347 7.21093L25.9533 1.22914L25.0406 0L30 0.245827L28.2657 4.42489ZM3.46856 17.9727H6.63286V11.8816L3.46856 13.6844V17.9727ZM8.51927 10.8164V17.9727H11.6531V9.31411L11.501 9.0956L8.51927 10.8164ZM13.5396 12.8649V18H16.7039V11.0622L13.9655 12.5918L13.5396 12.8649ZM18.5903 17.9727H21.7546V8.22155L18.5903 9.99697V17.9727ZM23.641 17.9727H26.8053V5.38088L23.641 7.1563V17.9727Z" fill="white"/>
</svg>
