<svg width="130" height="18" viewBox="0 0 130 18" fill="none" xmlns="http://www.w3.org/2000/svg">
<g clip-path="url(#clip0_10_770)">
<path d="M27.6115 4.42489L26.6902 3.11381L14.2367 10.2974L11.8293 6.7739L1.30776 12.8923L0 11.0076L12.5723 3.68741L14.9798 7.21093L25.3527 1.22914L24.461 0L29.3057 0.245827L27.6115 4.42489ZM3.38828 17.9727H6.47935V11.8816L3.38828 13.6844V17.9727ZM8.3221 10.8164V17.9727H11.3834V9.31411L11.2348 9.0956L8.3221 10.8164ZM13.2262 12.8649V18H16.3173V11.0622L13.6423 12.5918L13.2262 12.8649ZM18.16 17.9727H21.2511V8.22155L18.16 9.99697V17.9727ZM23.0938 17.9727H26.1849V5.38088L23.0938 7.1563V17.9727Z" fill="white"/>
<path d="M42.4033 12.9236C42.4033 12.2222 45.227 12.2222 45.227 12.9236C45.227 15.5419 43.7515 17.3653 41.0551 17.3653C38.2314 17.3653 36.2981 15.7523 36.2218 13.2742V13.2275V5.16219V5.11543C36.2981 2.61403 38.3332 0.954215 41.0551 1.00097C43.9042 1.04773 45.227 2.87118 45.227 5.4661C45.227 6.16743 42.4033 6.16743 42.4033 5.4661C42.4033 5.20894 42.4033 4.99855 42.3524 4.76477C42.1998 3.38549 40.3937 3.64264 40.0121 3.82966C39.2744 4.15695 39.1218 4.97517 39.1218 5.53623V12.8534C39.1472 13.4145 39.2744 14.2327 40.0121 14.56C40.3937 14.747 42.1998 15.0042 42.3524 13.6483C42.4033 13.4145 42.4033 13.1807 42.4033 12.9236ZM54.7663 1.4919L57.4119 16.3367C57.6154 17.5056 54.7409 17.6225 54.5883 16.7809L54.0795 13.9756H51.1032L50.5944 16.7809C50.4673 17.4822 47.5673 17.5056 47.7708 16.3367L50.4418 1.4919C50.569 0.790571 54.6646 0.860704 54.7663 1.4919ZM53.5962 11.3339L52.6041 5.74663L51.5865 11.3339H53.5962ZM68.4776 13.1807C68.5285 13.9756 68.2995 14.8639 67.8162 15.5185C67.5872 15.8224 67.3329 16.1263 67.0022 16.3835C66.7986 16.5237 66.5951 16.6874 66.3662 16.8043C66.1373 16.9211 65.8829 17.0146 65.6539 17.1082C64.8908 17.4121 63.975 17.4354 63.1864 17.2484C62.7794 17.1549 62.3978 17.0146 62.0417 16.8043C61.711 16.6172 61.3549 16.3835 61.1005 16.1029C60.8206 15.8224 60.5663 15.5185 60.3882 15.1678C60.2864 14.9574 60.1593 14.7236 60.0829 14.4899C60.0321 14.2561 59.9557 13.6483 59.9557 13.4145C59.9557 12.7132 62.8048 12.7132 62.8048 13.4145C62.8048 13.9989 63.7969 15.5652 65.3232 14.1626C65.9592 13.321 65.3741 12.3625 64.8145 11.6612C63.9496 10.6793 62.8303 9.93123 61.9145 8.99612C61.3803 8.45843 60.8461 7.85062 60.5154 7.17266C60.3373 6.79862 60.1847 6.42458 60.0829 6.00378C59.7014 4.06344 60.3628 0.60355 64.9671 1.00097C67.282 1.21137 68.2995 3.03482 68.2995 4.27384C68.2995 4.97517 65.3995 4.97517 65.3995 4.27384C65.3995 3.33873 62.525 3.22184 62.8812 5.27908C62.932 5.48948 62.9829 5.69987 63.0847 5.91027C63.2373 6.21418 63.4154 6.47134 63.6189 6.72849C63.8732 7.0324 64.1276 7.28955 64.4329 7.54671C65.5522 8.55195 66.8241 9.46367 67.6381 10.7494C68.1214 11.4975 68.4013 12.3157 68.4776 13.1807ZM77.7117 7.94413V1.53866C77.7117 0.837327 80.6371 0.837327 80.6371 1.53866V16.851C80.6371 17.5523 77.7117 17.5523 77.7117 16.851V10.5858H74.4301V16.851C74.4301 17.5523 71.5302 17.5523 71.5302 16.851V1.53866C71.5302 0.837327 74.4301 0.837327 74.4301 1.53866V7.94413H77.7117ZM85.6484 1.00097H90.7361C91.4992 1.00097 91.4992 3.66602 90.7361 3.66602H87.0984V7.92075H89.6423C90.4054 7.92075 90.4054 10.6092 89.6423 10.6092H87.0984V16.851C87.0984 17.5523 84.1984 17.5523 84.1984 16.851V2.28674C84.1984 1.00097 84.1984 1.00097 85.6484 1.00097ZM97.2737 14.7236H100.937C101.446 14.7236 101.446 17.3653 100.937 17.3653H95.8238C94.3738 17.3653 94.3738 17.3653 94.3738 16.0795V1.53866C94.3738 1.0711 97.2737 1.0711 97.2737 1.53866V14.7236ZM112.689 4.29722C112.766 4.55437 112.715 14.0457 112.613 14.3964C112.155 16.1964 110.781 17.3653 108.619 17.3653H107.958C105.821 17.3653 104.447 16.1964 103.964 14.3964C103.862 14.0457 103.837 4.55437 103.888 4.29722C104.244 2.33349 105.567 1.04773 107.958 1.00097H108.619C111.036 1.04773 112.333 2.33349 112.689 4.29722ZM107.576 14.56C108.009 14.7704 108.568 14.7704 109.001 14.56C109.739 14.2327 109.866 13.4145 109.891 12.8534V5.53623C109.891 4.97517 109.739 4.15695 109.001 3.82966C108.568 3.61926 108.009 3.61926 107.576 3.82966C106.839 4.15695 106.686 4.97517 106.686 5.53623V12.8534C106.711 13.4145 106.839 14.2327 107.576 14.56ZM125.688 9.15976L127.113 1.4919C127.24 0.767194 130.216 0.790571 129.987 1.95945L127.24 16.5939C126.986 17.7627 124.518 17.4121 124.366 16.7107L122.636 8.57532L120.88 16.7107C120.753 17.4121 118.235 17.7627 118.006 16.5939L115.259 1.95945C115.03 0.790571 118.006 0.767194 118.133 1.4919L119.558 9.15976L121.16 1.51528C121.415 0.813949 123.831 0.813949 124.086 1.51528L125.688 9.15976Z" fill="white"/>
</g>
<defs>
<clipPath id="clip0_10_770">
<rect width="130" height="18" fill="white"/>
</clipPath>
</defs>
</svg>
