<svg width="23" height="18" viewBox="0 0 23 18" fill="none" xmlns="http://www.w3.org/2000/svg">
<path d="M21.6704 4.42489L20.9473 3.11381L11.1734 10.2974L9.28398 6.7739L1.02637 12.8923L0 11.0076L9.86714 3.68741L11.7566 7.21093L19.8976 1.22914L19.1978 0L23 0.245827L21.6704 4.42489ZM2.65923 17.9727H5.08519V11.8816L2.65923 13.6844V17.9727ZM6.53144 10.8164V17.9727H8.93408V9.31411L8.81744 9.0956L6.53144 10.8164ZM10.3803 12.8649V18H12.8063V11.0622L10.7069 12.5918L10.3803 12.8649ZM14.2525 17.9727H16.6785V8.22155L14.2525 9.99697V17.9727ZM18.1247 17.9727H20.5507V5.38088L18.1247 7.1563V17.9727Z" fill="white"/>
</svg>
